<?xml version="1.0" encoding="utf-8"?>
<svg viewBox="0 0 500 500" xmlns="http://www.w3.org/2000/svg">
  <g transform="matrix(0.535531, 0, 0, 0.632607, 298.358856, 126.593697)" style="">
    <path d="M342.792,60.397C292.954,129.216,202.264,196.99,77.634,262.966c5.979-13.148,10.702-23.227,13.884-27.594 c11.011-15.203,33.408-58.257,33.408-58.257s11.8,8.215,13.405,4.426c1.576-3.801,68.346-162.727,68.346-162.727 s-31.481-35.136-42.738-9.376c-7.421,17.014-73.723,168.804-117.851,269.817c-8.513,4.273-17.131,8.582-25.924,12.856 c-9.873,4.333-4.77,15.157,10.69,22c-14.549,33.338-24.224,55.489-24.224,55.489s-0.298,11.082,7.701,8.232 c13.557-16.161,26.162-37.893,37.244-59.623c83.743-7.334,306.337-188.078,317.734-204.758 C381.046,96.321,345.326,43.325,342.792,60.397z M64.526,299.013c-2.615,2.452-6.731,2.301-9.166-0.292 c-2.452-2.616-2.312-6.726,0.298-9.179c2.615-2.451,6.72-2.312,9.172,0.305C67.265,292.45,67.137,296.572,64.526,299.013z"/>
  </g>
  <g transform="matrix(0.585934, 0, 0, 0.647397, -11.188596, 113.956169)" style="">
    <g>
      <path d="M117.017,228.17l62.572-25.619c-0.228-9.552-0.538-17.883-0.8-23.681c-7.281,6.137-13.119,10.825-16.272,12.938 c-11.782,7.87-42.137,18.929-57.445,24.265c-18.141-11.724-44.589-7.392-62.163,11.304c-19.221,20.435-20.879,49.908-3.795,67.084 c0.303,0.316,0.625,0.607,0.934,0.923c17.878,16.792,48.25,13.628,67.692-7.076C124.561,270.395,127.935,245.593,117.017,228.17z M48.834,286.02l-0.63-0.619c-11.981-12.039-10.165-34.133,4.041-49.254c14.613-15.543,36.853-18.462,49.563-6.504l0.636,0.606 c11.992,12.027,10.159,34.12-4.046,49.254C83.79,295.045,61.557,297.977,48.834,286.02z"/>
      <path d="M204.321,356.28c13.884-20.867,12.845-47.188-2.476-62.577c-0.21-0.211-0.443-0.387-0.653-0.584 c-0.596-14.434-0.129-45.729,11.28-81.343C214.211,197.226,316.41,2.557,316.41,2.557L309.333,0L187.64,172.044 c0,0,4.771,79.504-2.814,111.733c-18.963-5.36-41.5,3.549-54.584,23.214c-13.884,20.866-12.839,47.175,2.476,62.565 c1.827,1.846,3.865,3.516,6.037,4.951C159.166,388.111,188.581,379.926,204.321,356.28z M200.771,181.462 c-3.036-3.047-3.013-7.987,0.023-11.023c3.06-3.036,7.987-3.036,11.035,0.023c3.036,3.048,3.024,7.987-0.023,11.023 C208.747,184.539,203.807,184.527,200.771,181.462z M145.848,363.835c-1.46-0.958-2.826-2.078-4.04-3.315 c-11.041-11.094-11.409-30.606-0.888-46.429c11.812-17.749,33.256-24.335,47.794-14.655c1.46,0.97,2.82,2.09,4.052,3.305 c11.029,11.094,11.415,30.617,0.887,46.429C181.825,366.941,160.386,373.504,145.848,363.835z"/>
      <path d="M353.765,29.87l-5.372-5.395L279.23,89.143c-12.611,24.621-25.701,50.48-36.27,72.019L353.765,29.87z"/>
    </g>
  </g>
  <g transform="matrix(0.585934, 0, 0, 0.647397, 240.253159, 25.144178)" style=""/>
  <g transform="matrix(0.585934, 0, 0, 0.647397, 240.253159, 25.144178)" style=""/>
  <g transform="matrix(0.585934, 0, 0, 0.647397, 240.253159, 25.144178)" style=""/>
  <g transform="matrix(0.585934, 0, 0, 0.647397, 240.253159, 25.144178)" style=""/>
  <g transform="matrix(0.585934, 0, 0, 0.647397, 240.253159, 25.144178)" style=""/>
  <g transform="matrix(0.585934, 0, 0, 0.647397, 240.253159, 25.144178)" style=""/>
  <g transform="matrix(0.585934, 0, 0, 0.647397, 240.253159, 25.144178)" style=""/>
  <g transform="matrix(0.585934, 0, 0, 0.647397, 240.253159, 25.144178)" style=""/>
  <g transform="matrix(0.585934, 0, 0, 0.647397, 240.253159, 25.144178)" style=""/>
  <g transform="matrix(0.585934, 0, 0, 0.647397, 240.253159, 25.144178)" style=""/>
  <g transform="matrix(0.585934, 0, 0, 0.647397, 240.253159, 25.144178)" style=""/>
  <g transform="matrix(0.585934, 0, 0, 0.647397, 240.253159, 25.144178)" style=""/>
  <g transform="matrix(0.585934, 0, 0, 0.647397, 240.253159, 25.144178)" style=""/>
  <g transform="matrix(0.585934, 0, 0, 0.647397, 240.253159, 25.144178)" style=""/>
  <g transform="matrix(0.585934, 0, 0, 0.647397, 240.253159, 25.144178)" style=""/>
  <g transform="matrix(1.429917, 0, 0, 1.25795, 193.578094, 201.075211)" style="">
    <path d="M54.454,23.18l-18.609-0.002L35.844,5.91C35.845,2.646,33.198,0,29.934,0c-3.263,0-5.909,2.646-5.909,5.91v17.269 L5.91,23.178C2.646,23.179,0,25.825,0,29.088c0.002,3.264,2.646,5.909,5.91,5.909h18.115v19.457c0,3.267,2.646,5.91,5.91,5.91 c3.264,0,5.909-2.646,5.91-5.908V34.997h18.611c3.262,0,5.908-2.645,5.908-5.907C60.367,25.824,57.718,23.178,54.454,23.18z"/>
  </g>
  <g transform="matrix(1.429917, 0, 0, 1.25795, 193.578094, 201.075211)" style=""/>
  <g transform="matrix(1.429917, 0, 0, 1.25795, 193.578094, 201.075211)" style=""/>
  <g transform="matrix(1.429917, 0, 0, 1.25795, 193.578094, 201.075211)" style=""/>
  <g transform="matrix(1.429917, 0, 0, 1.25795, 193.578094, 201.075211)" style=""/>
  <g transform="matrix(1.429917, 0, 0, 1.25795, 193.578094, 201.075211)" style=""/>
  <g transform="matrix(1.429917, 0, 0, 1.25795, 193.578094, 201.075211)" style=""/>
  <g transform="matrix(1.429917, 0, 0, 1.25795, 193.578094, 201.075211)" style=""/>
  <g transform="matrix(1.429917, 0, 0, 1.25795, 193.578094, 201.075211)" style=""/>
  <g transform="matrix(1.429917, 0, 0, 1.25795, 193.578094, 201.075211)" style=""/>
  <g transform="matrix(1.429917, 0, 0, 1.25795, 193.578094, 201.075211)" style=""/>
  <g transform="matrix(1.429917, 0, 0, 1.25795, 193.578094, 201.075211)" style=""/>
  <g transform="matrix(1.429917, 0, 0, 1.25795, 193.578094, 201.075211)" style=""/>
  <g transform="matrix(1.429917, 0, 0, 1.25795, 193.578094, 201.075211)" style=""/>
  <g transform="matrix(1.429917, 0, 0, 1.25795, 193.578094, 201.075211)" style=""/>
  <g transform="matrix(1.429917, 0, 0, 1.25795, 193.578094, 201.075211)" style=""/>
</svg>